<svg width="19" height="22" viewBox="0 0 19 22" fill="none" xmlns="http://www.w3.org/2000/svg">
<path fill-rule="evenodd" clip-rule="evenodd" d="M9.12364 0C6.43456 0 3.14556 0.98325 1.20397 1.65887C0.25714 1.98854 -0.217235 3.01683 0.0961401 3.96846L2.15464 10.2178C1.61908 11.3858 1.38568 12.6696 1.47589 13.9514C1.56609 15.2332 1.97702 16.4717 2.67088 17.5532C3.36475 18.6347 4.31931 19.5244 5.44684 20.1407C6.57437 20.7569 7.8387 21.0799 9.12364 21.0799C10.4086 21.0799 11.6729 20.7569 12.8004 20.1407C13.928 19.5244 14.8825 18.6347 15.5764 17.5532C16.2703 16.4717 16.6812 15.2332 16.7714 13.9514C16.8616 12.6696 16.6282 11.3858 16.0926 10.2178L18.1511 3.96942C18.4645 3.01683 17.9901 1.98854 17.0433 1.65983C15.1008 0.982292 11.8127 0 9.12364 0ZM3.73781 11.9073C7.33826 10.4286 10.909 10.4286 14.5095 11.9073C14.567 11.9309 14.6264 11.9488 14.6877 11.961C14.909 12.8111 14.9326 13.7007 14.7566 14.5614C14.5806 15.4221 14.2097 16.231 13.6724 16.9261C13.1351 17.6212 12.4457 18.1839 11.6571 18.571C10.8685 18.9582 10.0017 19.1595 9.12316 19.1595C8.24465 19.1595 7.37782 18.9582 6.58922 18.571C5.80061 18.1839 5.1112 17.6212 4.57391 16.9261C4.03662 16.231 3.66574 15.4221 3.48974 14.5614C3.31373 13.7007 3.33729 12.8111 3.5586 11.961C3.61993 11.9488 3.67967 11.9309 3.73781 11.9073ZM10.082 4.79167H11.9986V6.70833H10.082V8.625H8.16531V6.70833H6.24864V4.79167H8.16531V2.875H10.082V4.79167Z" fill="#0052A1"/>
</svg>
