<svg width="46" height="46" viewBox="0 0 46 46" fill="none" xmlns="http://www.w3.org/2000/svg">
<path d="M43.8913 40.6334L36.033 32.7751C36.7997 30.8584 36.4163 28.3667 34.6913 26.8334C32.9663 25.1084 30.4747 24.7251 28.3663 25.6834L32.008 29.3251L29.3247 32.0084L25.4913 28.1751C24.533 30.2834 24.9163 32.7751 26.6413 34.6917C28.3663 36.4167 30.6663 36.8001 32.583 36.0334L40.4413 43.8918C40.8247 44.2751 41.3997 44.2751 41.5913 43.8918L43.508 41.9751C44.083 41.4001 44.083 40.8251 43.8913 40.6334ZM24.9163 38.3334H3.83301V34.5001C3.83301 30.2834 10.733 26.8334 19.1663 26.8334C20.1247 26.8334 21.083 26.8334 21.8497 27.0251C21.2747 28.1751 21.083 29.3251 21.083 30.6667C21.083 33.7334 22.6163 36.6084 24.9163 38.3334ZM19.1663 7.66675C14.9497 7.66675 11.4997 11.1167 11.4997 15.3334C11.4997 19.5501 14.9497 23.0001 19.1663 23.0001C23.383 23.0001 26.833 19.5501 26.833 15.3334C26.833 11.1167 23.383 7.66675 19.1663 7.66675Z" fill="#0052A1"/>
</svg>
