<svg width="35" height="43" viewBox="0 0 35 43" fill="none" xmlns="http://www.w3.org/2000/svg">
<path d="M17.25 0L0 7.66667V19.1667C0 29.8042 7.36 39.7517 17.25 42.1667C27.14 39.7517 34.5 29.8042 34.5 19.1667V7.66667L17.25 0ZM17.25 7.475C18.3872 7.475 19.4989 7.81223 20.4445 8.44405C21.3901 9.07587 22.1271 9.9739 22.5623 11.0246C22.9975 12.0752 23.1114 13.2314 22.8895 14.3468C22.6677 15.4622 22.12 16.4867 21.3159 17.2909C20.5117 18.095 19.4872 18.6427 18.3718 18.8645C17.2564 19.0864 16.1002 18.9725 15.0496 18.5373C13.9989 18.1021 13.1009 17.3651 12.469 16.4195C11.8372 15.4739 11.5 14.3622 11.5 13.225C11.5 11.7 12.1058 10.2375 13.1841 9.15914C14.2625 8.0808 15.725 7.475 17.25 7.475ZM17.25 22.6167C21.0833 22.6167 28.75 24.7058 28.75 28.52C27.4912 30.4177 25.7823 31.9744 23.7757 33.0513C21.7692 34.1282 19.5273 34.6918 17.25 34.6918C14.9727 34.6918 12.7308 34.1282 10.7243 33.0513C8.7177 31.9744 7.00881 30.4177 5.75 28.52C5.75 24.7058 13.4167 22.6167 17.25 22.6167Z" fill="#0052A1"/>
</svg>
