<svg width="35" height="36" viewBox="0 0 35 36" fill="none" xmlns="http://www.w3.org/2000/svg">
<path d="M33.1256 0.873428L34.0844 1.83218C35.4055 3.15493 35.2056 5.4998 33.6343 7.06955L13.8629 26.8409L7.45713 29.1842C6.65275 29.4799 5.8695 29.0964 5.71025 28.3311C5.65661 28.0534 5.68194 27.7663 5.78337 27.5023L8.17213 21.0413L27.8883 1.32355C29.4596 -0.246198 31.8045 -0.449322 33.1256 0.873428ZM13 2.83968C13.2134 2.83968 13.4247 2.88171 13.6219 2.96337C13.819 3.04504 13.9982 3.16473 14.149 3.31563C14.2999 3.46652 14.4196 3.64566 14.5013 3.84282C14.583 4.03997 14.625 4.25128 14.625 4.46468C14.625 4.67808 14.583 4.88938 14.5013 5.08654C14.4196 5.28369 14.2999 5.46283 14.149 5.61373C13.9982 5.76462 13.819 5.88432 13.6219 5.96598C13.4247 6.04765 13.2134 6.08968 13 6.08968H6.5C5.63805 6.08968 4.8114 6.43209 4.2019 7.04158C3.59241 7.65107 3.25 8.47772 3.25 9.33968V28.8397C3.25 29.7016 3.59241 30.5283 4.2019 31.1378C4.8114 31.7473 5.63805 32.0897 6.5 32.0897H26C26.862 32.0897 27.6886 31.7473 28.2981 31.1378C28.9076 30.5283 29.25 29.7016 29.25 28.8397V22.3397C29.25 21.9087 29.4212 21.4954 29.726 21.1906C30.0307 20.8859 30.444 20.7147 30.875 20.7147C31.306 20.7147 31.7193 20.8859 32.024 21.1906C32.3288 21.4954 32.5 21.9087 32.5 22.3397V28.8397C32.5 30.5636 31.8152 32.2169 30.5962 33.4359C29.3772 34.6549 27.7239 35.3397 26 35.3397H6.5C4.77609 35.3397 3.12279 34.6549 1.90381 33.4359C0.68482 32.2169 0 30.5636 0 28.8397V9.33968C0 7.61577 0.68482 5.96247 1.90381 4.74348C3.12279 3.5245 4.77609 2.83968 6.5 2.83968H13Z" fill="#0052A1"/>
</svg>
