<svg width="41" height="33" viewBox="0 0 41 33" fill="none" xmlns="http://www.w3.org/2000/svg">
<path d="M20.5 19.3978C22.9618 19.3978 25.19 18.3116 26.8033 16.5561C28.4148 14.8025 29.413 12.3778 29.413 9.69892C29.413 7.02008 28.4148 4.59535 26.8033 2.84178C25.19 1.08628 22.9618 0 20.5 0C18.0382 0 15.81 1.08628 14.1967 2.84178C12.5852 4.59535 11.587 7.02008 11.587 9.69892C11.587 12.3778 12.5852 14.8025 14.1967 16.5561C15.0244 17.457 16.007 18.1716 17.0886 18.6592C18.1701 19.1468 19.3293 19.3978 20.5 19.3978ZM34.7609 21.3376C35.3464 21.3389 35.9265 21.2143 36.4677 20.9711C37.0089 20.7278 37.5007 20.3707 37.9147 19.9201C38.3288 19.4695 38.657 18.9344 38.8806 18.3455C39.1041 17.7565 39.2186 17.1254 39.2174 16.4882C39.2174 15.1497 38.72 13.9373 37.9125 13.0586C37.4986 12.6083 37.0072 12.2512 36.4665 12.0076C35.9257 11.7639 35.3461 11.6386 34.7609 11.6387C34.1753 11.6374 33.5953 11.762 33.054 12.0052C32.5128 12.2485 32.0211 12.6057 31.607 13.0562C31.193 13.5068 30.8647 14.0419 30.6412 14.6308C30.4176 15.2198 30.3032 15.851 30.3043 16.4882C30.3034 17.1253 30.418 17.7564 30.6417 18.3452C30.8653 18.934 31.1935 19.469 31.6075 19.9195C32.0216 20.37 32.5132 20.7272 33.0543 20.9706C33.5954 21.2139 34.1754 21.3386 34.7609 21.3376ZM34.7609 22.4821C32.3882 22.4821 30.6038 23.2696 29.561 24.3598C27.5734 22.581 24.4307 21.3376 20.5 21.3376C16.4606 21.3376 13.3785 22.5946 11.423 24.3714C10.3605 23.2755 8.55652 22.4821 6.23913 22.4821C2.33878 22.4821 0 24.5965 0 26.7147C0 27.7719 2.33878 28.8329 6.23913 28.8329C7.31583 28.8329 8.282 28.734 9.13231 28.575L9.061 29.0987C9.061 31.0385 13.35 32.9783 20.5 32.9783C27.2062 32.9783 31.939 31.0385 31.939 29.0987L31.9033 28.604C32.7287 28.7457 33.677 28.8329 34.7609 28.8329C38.417 28.8329 41 27.7719 41 26.7147C41 24.5965 38.5525 22.4821 34.7609 22.4821ZM6.23913 21.3376C7.46913 21.3376 8.58326 20.7964 9.39078 19.9177C9.80458 19.4673 10.1328 18.9326 10.3567 18.3442C10.5806 17.7557 10.6958 17.125 10.6957 16.4882C10.6968 15.851 10.5824 15.2198 10.3588 14.6308C10.1353 14.0419 9.80705 13.5068 9.39299 13.0562C8.97893 12.6057 8.48718 12.2485 7.94596 12.0052C7.40474 11.762 6.8247 11.6374 6.23913 11.6387C5.65363 11.6377 5.0737 11.7624 4.53258 12.0058C3.99147 12.2491 3.49981 12.6063 3.0858 13.0568C2.67179 13.5073 2.34356 14.0423 2.11993 14.6311C1.8963 15.22 1.78167 15.851 1.78261 16.4882C1.78143 17.1254 1.8959 17.7565 2.11945 18.3455C2.34299 18.9344 2.67121 19.4695 3.08527 19.9201C3.49933 20.3707 3.99108 20.7278 4.5323 20.9711C5.07353 21.2143 5.65356 21.3389 6.23913 21.3376Z" fill="#0052A1"/>
</svg>
