<svg width="39" height="37" viewBox="0 0 39 37" fill="none" xmlns="http://www.w3.org/2000/svg">
<path d="M9.58333 17.25C8.45068 17.25 7.32912 17.0269 6.28269 16.5935C5.23626 16.16 4.28544 15.5247 3.48454 14.7238C2.68363 13.9229 2.04832 12.9721 1.61487 11.9256C1.18143 10.8792 0.958333 9.75765 0.958333 8.625C0.958333 7.49235 1.18143 6.37079 1.61487 5.32436C2.04832 4.27792 2.68363 3.32711 3.48454 2.5262C4.28544 1.7253 5.23626 1.08999 6.28269 0.656539C7.32912 0.223092 8.45068 -1.68778e-08 9.58333 0C11.8708 3.40863e-08 14.0646 0.908703 15.6821 2.5262C17.2996 4.14371 18.2083 6.33751 18.2083 8.625C18.2083 10.9125 17.2996 13.1063 15.6821 14.7238C14.0646 16.3413 11.8708 17.25 9.58333 17.25ZM29.7083 24.9167C27.675 24.9167 25.725 24.1089 24.2872 22.6712C22.8494 21.2334 22.0417 19.2833 22.0417 17.25C22.0417 15.2167 22.8494 13.2666 24.2872 11.8288C25.725 10.3911 27.675 9.58333 29.7083 9.58333C31.7417 9.58333 33.6917 10.3911 35.1295 11.8288C36.5673 13.2666 37.375 15.2167 37.375 17.25C37.375 19.2833 36.5673 21.2334 35.1295 22.6712C33.6917 24.1089 31.7417 24.9167 29.7083 24.9167ZM29.7083 26.8333C31.9958 26.8333 34.1896 27.742 35.8071 29.3595C37.4246 30.977 38.3333 33.1708 38.3333 35.4583V36.4167H21.0833V35.4583C21.0833 33.1708 21.992 30.977 23.6095 29.3595C25.227 27.742 27.4208 26.8333 29.7083 26.8333ZM9.58333 19.1667C10.8418 19.1667 12.088 19.4145 13.2507 19.8962C14.4134 20.3778 15.4699 21.0837 16.3598 21.9736C17.2497 22.8635 17.9556 23.9199 18.4372 25.0826C18.9188 26.2453 19.1667 27.4915 19.1667 28.75V36.4167H0V28.75C0 26.2083 1.00967 23.7708 2.80689 21.9736C4.60412 20.1763 7.04168 19.1667 9.58333 19.1667Z" fill="#0052A1"/>
</svg>
