<svg width="35" height="35" viewBox="0 0 35 35" fill="none" xmlns="http://www.w3.org/2000/svg">
<path fill-rule="evenodd" clip-rule="evenodd" d="M9.58333 7.66667C9.58333 5.63334 10.3911 3.68329 11.8288 2.24551C13.2666 0.807735 15.2167 0 17.25 0C19.2833 0 21.2334 0.807735 22.6712 2.24551C24.1089 3.68329 24.9167 5.63334 24.9167 7.66667C24.9167 9.69999 24.1089 11.65 22.6712 13.0878C21.2334 14.5256 19.2833 15.3333 17.25 15.3333C15.2167 15.3333 13.2666 14.5256 11.8288 13.0878C10.3911 11.65 9.58333 9.69999 9.58333 7.66667ZM9.58333 19.1667C7.04168 19.1667 4.60412 20.1763 2.80689 21.9736C1.00967 23.7708 0 26.2083 0 28.75C0 30.275 0.605802 31.7375 1.68414 32.8159C2.76247 33.8942 4.22501 34.5 5.75 34.5H28.75C30.275 34.5 31.7375 33.8942 32.8159 32.8159C33.8942 31.7375 34.5 30.275 34.5 28.75C34.5 26.2083 33.4903 23.7708 31.6931 21.9736C29.8959 20.1763 27.4583 19.1667 24.9167 19.1667H9.58333Z" fill="#0052A1"/>
</svg>
