<svg width="40" height="39" viewBox="0 0 40 39" fill="none" xmlns="http://www.w3.org/2000/svg">
<path d="M35.4583 28.75C36.475 28.75 37.45 28.3461 38.1689 27.6272C38.8878 26.9084 39.2917 25.9333 39.2917 24.9167V3.83333C39.2917 2.81667 38.8878 1.84165 38.1689 1.12276C37.45 0.403868 36.475 0 35.4583 0H15.2567C15.9275 1.16917 16.2917 2.49167 16.2917 3.83333H35.4583V24.9167H18.2083V28.75M25.875 9.58333V13.4167H14.375V38.3333H10.5417V26.8333H6.70833V38.3333H2.875V23H0V13.4167C0 12.4 0.403868 11.425 1.12276 10.7061C1.84165 9.9872 2.81667 9.58333 3.83333 9.58333H25.875ZM12.4583 3.83333C12.4583 4.85 12.0545 5.82502 11.3356 6.54391C10.6167 7.2628 9.64166 7.66667 8.625 7.66667C7.60834 7.66667 6.63331 7.2628 5.91442 6.54391C5.19553 5.82502 4.79167 4.85 4.79167 3.83333C4.79167 2.81667 5.19553 1.84165 5.91442 1.12276C6.63331 0.403868 7.60834 0 8.625 0C9.64166 0 10.6167 0.403868 11.3356 1.12276C12.0545 1.84165 12.4583 2.81667 12.4583 3.83333Z" fill="#0052A1"/>
</svg>
